# Vectary OBJ Export units=mm
mtllib Coffee Table Blue.mtl
o 000_Merged_Objects
g Merged_Objects
usemtl Box material 1_34933322-0124-4dd9-849c-021c3ce7ad70
v -22.973 1.791 21.800
v -22.973 1.791 20.757
v -21.848 1.811 20.757
v -21.848 1.811 21.800
v -14.003 51.954 19.782
v -14.003 51.954 12.007
v -7.620 52.064 19.782
v -7.620 52.064 12.007
v -22.973 1.791 -23.224
v -22.973 1.791 -24.267
v -21.848 1.811 -24.267
v -21.848 1.811 -23.224
v -17.888 51.887 -11.245
v -17.888 51.887 -19.019
v -11.505 51.997 -11.245
v -11.505 51.997 -19.019
v 30.025 2.708 19.319
v 30.025 2.708 18.276
v 31.150 2.728 18.276
v 31.150 2.728 19.319
v 9.372 52.358 14.072
v 9.372 52.358 6.297
v 15.755 52.469 14.072
v 15.755 52.469 6.297
v 30.025 2.708 -19.752
v 30.025 2.708 -20.794
v 31.150 2.728 -20.794
v 31.150 2.728 -19.752
v 9.372 52.358 -7.772
v 9.372 52.358 -15.547
v 15.755 52.469 -7.772
v 15.755 52.469 -15.547
vt 1.00000 0.00000
vt 1.00000 1.00000
vt 0.00000 1.00000
vt 0.00000 0.00000
vt 1.00000 0.00000
vt 1.00000 1.00000
vt 0.00000 1.00000
vt 0.00000 0.00000
vt 1.00000 0.00000
vt 1.00000 1.00000
vt 0.00000 1.00000
vt 0.00000 0.00000
vt 1.00000 0.00000
vt 1.00000 1.00000
vt 0.00000 1.00000
vt 0.00000 0.00000
vt 1.00000 0.00000
vt 1.00000 1.00000
vt 0.00000 1.00000
vt 0.00000 0.00000
vt 1.00000 0.00000
vt 1.00000 1.00000
vt 0.00000 1.00000
vt 0.00000 0.00000
vt 1.00000 0.00000
vt 1.00000 1.00000
vt 0.00000 1.00000
vt 0.00000 0.00000
vt 1.00000 0.00000
vt 1.00000 1.00000
vt 0.00000 1.00000
vt 0.00000 0.00000
vt 1.00000 0.00000
vt 1.00000 1.00000
vt 0.00000 1.00000
vt 0.00000 0.00000
vt 1.00000 0.00000
vt 1.00000 1.00000
vt 0.00000 1.00000
vt 0.00000 0.00000
vt 1.00000 0.00000
vt 1.00000 1.00000
vt 0.00000 1.00000
vt 0.00000 0.00000
vt 1.00000 0.00000
vt 1.00000 1.00000
vt 0.00000 1.00000
vt 0.00000 0.00000
vt 1.00000 0.00000
vt 1.00000 1.00000
vt 0.00000 1.00000
vt 0.00000 0.00000
vt 1.00000 0.00000
vt 1.00000 1.00000
vt 0.00000 1.00000
vt 0.00000 0.00000
vt 1.00000 0.00000
vt 1.00000 1.00000
vt 0.00000 1.00000
vt 0.00000 0.00000
vt 1.00000 0.00000
vt 1.00000 1.00000
vt 0.00000 1.00000
vt 0.00000 0.00000
vt 1.00000 0.00000
vt 1.00000 1.00000
vt 0.00000 1.00000
vt 0.00000 0.00000
vt 1.00000 0.00000
vt 1.00000 1.00000
vt 0.00000 1.00000
vt 0.00000 0.00000
vt 1.00000 0.00000
vt 1.00000 1.00000
vt 0.00000 1.00000
vt 0.00000 0.00000
vt 1.00000 0.00000
vt 1.00000 1.00000
vt 0.00000 1.00000
vt 0.00000 0.00000
vn 0.01730 -0.99985 0.00000
vn 0.00309 -0.17831 -0.98397
vn 0.72474 -0.31564 -0.61247
vn 0.96084 -0.27711 0.00000
vn -0.98438 0.17604 0.00000
vn -0.92794 0.37272 0.00000
vn -0.92794 0.37272 0.00000
vn -0.98438 0.17604 0.00000
vn -0.00070 0.04032 0.99919
vn -0.00070 0.04032 0.99919
vn -0.00070 0.04032 0.99919
vn -0.00070 0.04032 0.99919
vn 0.00309 -0.17831 -0.98397
vn 0.00298 -0.17234 -0.98503
vn 0.72559 -0.31221 -0.61323
vn 0.72474 -0.31564 -0.61247
vn 0.72474 -0.31564 -0.61247
vn 0.72559 -0.31221 -0.61323
vn 0.96218 -0.27243 0.00000
vn 0.96084 -0.27711 0.00000
vn 0.00413 -0.23869 0.97109
vn 0.01730 -0.99985 0.00000
vn 0.97838 -0.20681 0.00000
vn 0.72828 -0.30089 0.61569
vn -0.99489 0.10099 0.00000
vn -0.95105 0.30903 0.00000
vn -0.95105 0.30903 0.00000
vn -0.99489 0.10099 0.00000
vn 0.72828 -0.30089 0.61569
vn 0.72909 -0.29740 0.61643
vn 0.00403 -0.23296 0.97248
vn 0.00413 -0.23869 0.97109
vn -0.00181 0.10436 -0.99454
vn -0.00599 0.34641 -0.93806
vn -0.00599 0.34641 -0.93806
vn -0.00181 0.10436 -0.99454
vn 0.97838 -0.20681 0.00000
vn 0.97942 -0.20185 0.00000
vn 0.72909 -0.29740 0.61643
vn 0.72828 -0.30089 0.61569
vn -0.92153 -0.38830 0.00000
vn -0.68412 -0.43036 -0.58887
vn 0.00413 -0.23869 -0.97109
vn 0.01730 -0.99985 0.00000
vn -0.92153 -0.38830 0.00000
vn -0.92331 -0.38406 0.00000
vn -0.68524 -0.42733 -0.58977
vn -0.68412 -0.43036 -0.58887
vn 0.72642 0.29053 0.62282
vn 0.68412 0.43036 0.58887
vn -0.00599 0.34641 0.93806
vn -0.00181 0.10436 0.99454
vn -0.68412 -0.43036 -0.58887
vn -0.68524 -0.42733 -0.58977
vn 0.00403 -0.23296 -0.97248
vn 0.00413 -0.23869 -0.97109
vn 0.95529 0.29566 0.00000
vn 0.88068 0.47371 0.00000
vn 0.68412 0.43036 0.58887
vn 0.72642 0.29053 0.62282
vn -0.68412 -0.43036 0.58887
vn -0.92153 -0.38830 0.00000
vn 0.01730 -0.99985 0.00000
vn 0.00413 -0.23869 0.97109
vn -0.68412 -0.43036 0.58887
vn -0.68524 -0.42733 0.58977
vn -0.92331 -0.38406 0.00000
vn -0.92153 -0.38830 0.00000
vn 0.00413 -0.23869 0.97109
vn 0.00403 -0.23296 0.97248
vn -0.68524 -0.42733 0.58977
vn -0.68412 -0.43036 0.58887
vn -0.00181 0.10436 -0.99454
vn -0.00599 0.34641 -0.93806
vn 0.68412 0.43036 -0.58887
vn 0.72642 0.29053 -0.62282
vn 0.72642 0.29053 -0.62282
vn 0.68412 0.43036 -0.58887
vn 0.88068 0.47371 0.00000
vn 0.95529 0.29566 0.00000
f 2/2/2 3/3/3 4/4/4 1/1/1 
f 5/6/6 6/7/7 2/8/8 1/5/5 
f 7/10/10 5/11/11 1/12/12 4/9/9 
f 6/14/14 8/15/15 3/16/16 2/13/13 
f 8/18/18 7/19/19 4/20/20 3/17/17 
f 10/22/22 11/23/23 12/24/24 9/21/21 
f 13/26/26 14/27/27 10/28/28 9/25/25 
f 15/30/30 13/31/31 9/32/32 12/29/29 
f 14/34/34 16/35/35 11/36/36 10/33/33 
f 16/38/38 15/39/39 12/40/40 11/37/37 
f 18/42/42 19/43/43 20/44/44 17/41/41 
f 21/46/46 22/47/47 18/48/48 17/45/45 
f 23/50/50 21/51/51 17/52/52 20/49/49 
f 22/54/54 24/55/55 19/56/56 18/53/53 
f 24/58/58 23/59/59 20/60/60 19/57/57 
f 26/62/62 27/63/63 28/64/64 25/61/61 
f 29/66/66 30/67/67 26/68/68 25/65/65 
f 31/70/70 29/71/71 25/72/72 28/69/69 
f 30/74/74 32/75/75 27/76/76 26/73/73 
f 32/78/78 31/79/79 28/80/80 27/77/77 
o 001_Table_Top
g Table_Top
usemtl Cylinder material_dd83cb9e-775d-479b-881a-34ec58ab6409
v 40.391 46.178 -16.481
v 40.365 53.197 -16.481
v 43.642 53.033 0.000
v 43.656 46.234 0.000
v 31.092 46.017 -30.453
v 31.033 53.664 -30.453
v 17.176 45.776 -39.789
v 17.066 54.363 -39.789
v 0.760 45.492 -43.067
v 0.592 55.187 -43.067
v -15.656 45.208 -39.789
v -15.882 56.011 -39.789
v -29.573 44.967 -30.453
v -29.849 56.709 -30.453
v -38.871 44.806 -16.481
v -39.180 57.176 -16.481
v -42.137 44.750 0.000
v -42.457 57.340 0.000
v -38.871 44.806 16.481
v -39.180 57.176 16.481
v -29.573 44.967 30.453
v -29.849 56.709 30.453
v -15.656 45.208 39.789
v -15.882 56.011 39.789
v 0.760 45.492 43.067
v 0.592 55.187 43.067
v 17.176 45.776 39.789
v 17.066 54.363 39.789
v 31.092 46.017 30.453
v 31.033 53.664 30.453
v 40.391 46.178 16.481
v 40.365 53.197 16.481
v 0.760 45.492 0.000
v 0.592 55.187 0.000
vt 0.06250 0.00000
vt 0.06250 1.00000
vt 0.00000 1.00000
vt 0.00000 0.00000
vt 0.12500 0.00000
vt 0.12500 1.00000
vt 0.18750 0.00000
vt 0.18750 1.00000
vt 0.25000 0.00000
vt 0.25000 1.00000
vt 0.31250 0.00000
vt 0.31250 1.00000
vt 0.37500 0.00000
vt 0.37500 1.00000
vt 0.43750 0.00000
vt 0.43750 1.00000
vt 0.50000 0.00000
vt 0.50000 1.00000
vt 0.56250 0.00000
vt 0.56250 1.00000
vt 0.62500 0.00000
vt 0.62500 1.00000
vt 0.68750 0.00000
vt 0.68750 1.00000
vt 0.75000 0.00000
vt 0.75000 1.00000
vt 0.81250 0.00000
vt 0.81250 1.00000
vt 0.87500 0.00000
vt 0.87500 1.00000
vt 0.93750 0.00000
vt 0.93750 1.00000
vt 1.00000 0.00000
vt 1.00000 1.00000
vt 0.96194 0.69134
vt 1.00000 0.50000
vt 0.50000 0.50000
vt 0.85355 0.85355
vt 0.69134 0.96194
vt 0.50000 1.00000
vt 0.30866 0.96194
vt 0.14645 0.85355
vt 0.03806 0.69134
vt 0.00000 0.50000
vt 0.03806 0.30866
vt 0.14645 0.14645
vt 0.30866 0.03806
vt 0.50000 0.00000
vt 0.69134 0.03806
vt 0.85355 0.14645
vt 0.96194 0.30866
vt 0.50000 0.50000
vt 1.00000 0.50000
vt 0.96194 0.69134
vt 0.85355 0.85355
vt 0.69134 0.96194
vt 0.50000 1.00000
vt 0.30866 0.96194
vt 0.14645 0.85355
vt 0.03806 0.69134
vt 0.00000 0.50000
vt 0.03806 0.30866
vt 0.14645 0.14645
vt 0.30866 0.03806
vt 0.50000 0.00000
vt 0.69134 0.03806
vt 0.85355 0.14645
vt 0.96194 0.30866
vn 0.92191 0.00400 -0.38739
vn 0.92191 0.00400 -0.38739
vn 1.00000 0.00298 0.00000
vn 1.00000 0.00298 0.00000
vn 0.70076 0.00546 -0.71338
vn 0.70076 0.00546 -0.71338
vn 0.92191 0.00400 -0.38739
vn 0.92191 0.00400 -0.38739
vn 0.37252 0.00437 -0.92801
vn 0.37252 0.00437 -0.92801
vn 0.70076 0.00546 -0.71338
vn 0.70076 0.00546 -0.71338
vn -0.01139 -0.00060 -0.99993
vn -0.01139 -0.00060 -0.99993
vn 0.37252 0.00437 -0.92801
vn 0.37252 0.00437 -0.92801
vn -0.39223 -0.00845 -0.91983
vn -0.39223 -0.00845 -0.91983
vn -0.01139 -0.00060 -0.99993
vn -0.01139 -0.00060 -0.99993
vn -0.71262 -0.01675 -0.70135
vn -0.71262 -0.01675 -0.70135
vn -0.39223 -0.00845 -0.91983
vn -0.39223 -0.00845 -0.91983
vn -0.92529 -0.02295 -0.37856
vn -0.92529 -0.02295 -0.37856
vn -0.71262 -0.01675 -0.70135
vn -0.71262 -0.01675 -0.70135
vn -0.99968 -0.02523 0.00000
vn -0.99968 -0.02523 0.00000
vn -0.92529 -0.02295 -0.37856
vn -0.92529 -0.02295 -0.37856
vn -0.92529 -0.02295 0.37856
vn -0.92529 -0.02295 0.37856
vn -0.99968 -0.02523 0.00000
vn -0.99968 -0.02523 0.00000
vn -0.71262 -0.01675 0.70135
vn -0.71262 -0.01675 0.70135
vn -0.92529 -0.02295 0.37856
vn -0.92529 -0.02295 0.37856
vn -0.39223 -0.00845 0.91983
vn -0.39223 -0.00845 0.91983
vn -0.71262 -0.01675 0.70135
vn -0.71262 -0.01675 0.70135
vn -0.01139 -0.00060 0.99993
vn -0.01139 -0.00060 0.99993
vn -0.39223 -0.00845 0.91983
vn -0.39223 -0.00845 0.91983
vn 0.37252 0.00437 0.92801
vn 0.37252 0.00437 0.92801
vn -0.01139 -0.00060 0.99993
vn -0.01139 -0.00060 0.99993
vn 0.70076 0.00546 0.71338
vn 0.70076 0.00546 0.71338
vn 0.37252 0.00437 0.92801
vn 0.37252 0.00437 0.92801
vn 0.92191 0.00400 0.38739
vn 0.92191 0.00400 0.38739
vn 0.70076 0.00546 0.71338
vn 0.70076 0.00546 0.71338
vn 1.00000 0.00298 0.00000
vn 1.00000 0.00298 0.00000
vn 0.92191 0.00400 0.38739
vn 0.92191 0.00400 0.38739
vn 0.01730 -0.99985 0.00000
vn 0.01730 -0.99985 0.00000
vn 0.01730 -0.99985 0.00000
vn 0.01730 -0.99985 0.00000
vn 0.01730 -0.99985 0.00000
vn 0.01730 -0.99985 0.00000
vn 0.01730 -0.99985 0.00000
vn 0.01730 -0.99985 0.00000
vn 0.01730 -0.99985 0.00000
vn 0.01730 -0.99985 0.00000
vn 0.01730 -0.99985 0.00000
vn 0.01730 -0.99985 0.00000
vn 0.01730 -0.99985 0.00000
vn 0.01730 -0.99985 0.00000
vn 0.01730 -0.99985 0.00000
vn 0.01730 -0.99985 0.00000
vn 0.01730 -0.99985 0.00000
vn 0.01730 -0.99985 0.00000
vn 0.01730 -0.99985 0.00000
vn 0.01730 -0.99985 0.00000
vn 0.01730 -0.99985 0.00000
vn 0.01730 -0.99985 0.00000
vn 0.01730 -0.99985 0.00000
vn 0.01730 -0.99985 0.00000
vn 0.01730 -0.99985 0.00000
vn 0.01730 -0.99985 0.00000
vn 0.01730 -0.99985 0.00000
vn 0.01730 -0.99985 0.00000
vn 0.01730 -0.99985 0.00000
vn 0.01730 -0.99985 0.00000
vn 0.01730 -0.99985 0.00000
vn 0.01730 -0.99985 0.00000
vn 0.01730 -0.99985 0.00000
vn 0.01730 -0.99985 0.00000
vn 0.01730 -0.99985 0.00000
vn 0.01730 -0.99985 0.00000
vn 0.01730 -0.99985 0.00000
vn 0.01730 -0.99985 0.00000
vn 0.01730 -0.99985 0.00000
vn 0.01730 -0.99985 0.00000
vn 0.01730 -0.99985 0.00000
vn 0.01730 -0.99985 0.00000
vn 0.01730 -0.99985 0.00000
vn 0.01730 -0.99985 0.00000
vn 0.01730 -0.99985 0.00000
vn 0.01730 -0.99985 0.00000
vn 0.01730 -0.99985 0.00000
vn 0.01730 -0.99985 0.00000
vn 0.04995 0.99875 0.00000
vn 0.04995 0.99875 0.00000
vn 0.04995 0.99875 0.00000
vn 0.04995 0.99875 0.00000
vn 0.04995 0.99875 0.00000
vn 0.04995 0.99875 0.00000
vn 0.04995 0.99875 0.00000
vn 0.04995 0.99875 0.00000
vn 0.04995 0.99875 -0.00000
vn 0.04995 0.99875 0.00000
vn 0.04995 0.99875 -0.00000
vn 0.04995 0.99875 0.00000
vn 0.04995 0.99875 0.00000
vn 0.04995 0.99875 0.00000
vn 0.04995 0.99875 0.00000
vn 0.04995 0.99875 0.00000
vn 0.04995 0.99875 0.00000
vn 0.04995 0.99875 -0.00000
vn 0.04995 0.99875 0.00000
vn 0.04995 0.99875 -0.00000
vn 0.04995 0.99875 -0.00000
vn 0.04995 0.99875 0.00000
vn 0.04995 0.99875 -0.00000
vn 0.04995 0.99875 -0.00000
vn 0.04995 0.99875 0.00000
vn 0.04995 0.99875 -0.00000
vn 0.04995 0.99875 0.00000
vn 0.04995 0.99875 0.00000
vn 0.04995 0.99875 0.00000
vn 0.04995 0.99875 0.00000
vn 0.04995 0.99875 0.00000
vn 0.04995 0.99875 0.00000
vn 0.04995 0.99875 -0.00000
vn 0.04995 0.99875 0.00000
vn 0.04995 0.99875 -0.00000
vn 0.04995 0.99875 0.00000
vn 0.04995 0.99875 0.00000
vn 0.04995 0.99875 0.00000
vn 0.04995 0.99875 0.00000
vn 0.04995 0.99875 0.00000
vn 0.04995 0.99875 0.00000
vn 0.04995 0.99875 -0.00000
vn 0.04995 0.99875 0.00000
vn 0.04995 0.99875 -0.00000
vn 0.04995 0.99875 -0.00000
vn 0.04995 0.99875 0.00000
vn 0.04995 0.99875 -0.00000
vn 0.04995 0.99875 0.00000
f 34/82/82 35/83/83 36/84/84 33/81/81 
f 38/86/86 34/82/87 33/81/88 37/85/85 
f 40/88/90 38/86/91 37/85/92 39/87/89 
f 42/90/94 40/88/95 39/87/96 41/89/93 
f 44/92/98 42/90/99 41/89/100 43/91/97 
f 46/94/102 44/92/103 43/91/104 45/93/101 
f 48/96/106 46/94/107 45/93/108 47/95/105 
f 50/98/110 48/96/111 47/95/112 49/97/109 
f 52/100/114 50/98/115 49/97/116 51/99/113 
f 54/102/118 52/100/119 51/99/120 53/101/117 
f 56/104/122 54/102/123 53/101/124 55/103/121 
f 58/106/126 56/104/127 55/103/128 57/105/125 
f 60/108/130 58/106/131 57/105/132 59/107/129 
f 62/110/134 60/108/135 59/107/136 61/109/133 
f 64/112/138 62/110/139 61/109/140 63/111/137 
f 35/114/142 64/112/143 63/111/144 36/113/141 
f 33/115/145 36/116/146 65/117/147 
f 37/118/148 33/115/149 65/117/150 
f 39/119/151 37/118/152 65/117/153 
f 41/120/154 39/119/155 65/117/156 
f 43/121/157 41/120/158 65/117/159 
f 45/122/160 43/121/161 65/117/162 
f 47/123/163 45/122/164 65/117/165 
f 49/124/166 47/123/167 65/117/168 
f 51/125/169 49/124/170 65/117/171 
f 53/126/172 51/125/173 65/117/174 
f 55/127/175 53/126/176 65/117/177 
f 57/128/178 55/127/179 65/117/180 
f 59/129/181 57/128/182 65/117/183 
f 61/130/184 59/129/185 65/117/186 
f 63/131/187 61/130/188 65/117/189 
f 36/116/190 63/131/191 65/117/192 
f 66/132/193 35/133/194 34/134/195 
f 66/132/196 34/134/197 38/135/198 
f 66/132/199 38/135/200 40/136/201 
f 66/132/202 40/136/203 42/137/204 
f 66/132/205 42/137/206 44/138/207 
f 66/132/208 44/138/209 46/139/210 
f 66/132/211 46/139/212 48/140/213 
f 66/132/214 48/140/215 50/141/216 
f 66/132/217 50/141/218 52/142/219 
f 66/132/220 52/142/221 54/143/222 
f 66/132/223 54/143/224 56/144/225 
f 66/132/226 56/144/227 58/145/228 
f 66/132/229 58/145/230 60/146/231 
f 66/132/232 60/146/233 62/147/234 
f 66/132/235 62/147/236 64/148/237 
f 66/132/238 64/148/239 35/133/240 
